<svg width="4208" height="1656" viewBox="0 0 4208 1656" fill="none" xmlns="http://www.w3.org/2000/svg">
<path d="M231.634 164.912C348.03 97.2885 679.696 168.363 1809.92 124.202C2705.86 89.1961 3168.72 30.004 3587.31 2.6779C3839.21 -13.7669 4002.95 56.1127 4091.47 170.921C4162.28 262.768 4011.46 739.542 3995.6 1050.28L4007.82 1363.13C4031.89 1351.49 4070.38 1344.09 4129.59 1343.13C4325.88 1339.92 4098.42 1389.92 4010.83 1440.29L4013.13 1499.01C4007.25 1497.02 4002.22 1494.98 3997.98 1492.9C4019.13 1539.21 4034.52 1579.04 3957.05 1582.06C3768.28 1589.44 2549.13 1523.51 1759.63 1508.35C1410.42 1501.64 440.914 1640.28 52.0433 1655.47C-175.14 1664.35 425.447 1434.2 386.994 1435.7L231.634 164.912Z" fill="#1D6EFD"/>
</svg>
