<svg width="1999" height="697" viewBox="0 0 1999 697" fill="none" xmlns="http://www.w3.org/2000/svg">
<path d="M1998.79 598.248C1939.01 621.234 1525.62 693.018 1365.42 696.299C1101.95 701.695 817.961 651.862 605.7 659.993C477.962 664.886 50.4821 703.808 7.13132 663.891C-27.5493 631.958 92.5384 388.056 104.521 280.812L102.286 171.625C89.8168 176.245 70.2111 179.133 40.4093 179.281C-59.0046 179.774 56.7827 163.222 101.763 146.103L101.348 125.819C108.918 127.63 113.66 129.535 116.099 131.503C105.042 109.657 85.0342 90.062 130.794 97.3175C623.75 175.48 805.563 -7.2578 1205.06 0.438173C1381.76 3.8422 1611.19 90.4205 1808.25 86.3864C1923.37 84.0296 2071.03 36.0527 1936.29 158.983L1998.79 598.248Z" fill="#1D6EFD"/>
</svg>
