<svg width="1513" height="1221" viewBox="0 0 1513 1221" fill="none" xmlns="http://www.w3.org/2000/svg">
<path d="M637.984 19.7717C101.216 -8.37442 -51.6727 49.9079 -110.717 96.4633L-112.762 969.016C-94.499 969.974 -24.0123 946.574 83.8824 952.231C268.566 961.915 344.029 976.949 508.658 1001.6C880.867 1057.34 1124.59 1033.9 1214.24 1038.6C1303.9 1043.3 1386.42 1041.42 1550.46 1056.23C1681.69 1068.08 1518.49 1164.2 1597.14 1220.04L1615.64 867.247C1641.68 624.493 1686.78 119.999 1658.8 44.0547C1623.82 -50.8758 1314.19 39.3328 1194.16 38.2359C994.709 36.4133 1063.49 42.0834 637.984 19.7717Z" fill="#D0EBFF"/>
</svg>
