<svg width="320" height="405" viewBox="0 0 320 405" fill="none" xmlns="http://www.w3.org/2000/svg">
<path d="M255.846 362.683C326.129 370.202 395.987 400.248 408.255 381.873L360.247 0.841106C355.603 1.42626 344.564 9.12819 337.562 35.2547C328.809 67.913 276.839 63.9424 237.498 47.8621C198.157 31.7819 182.919 23.1833 160.12 26.0558C137.32 28.9284 69.1832 39.6169 27.1234 42.8125C-6.52436 45.3689 -60.6614 16.7077 -83.5239 2.05737L-68.6521 120.094C-61.7673 201.972 -45.1884 371.685 -33.9511 395.514C-19.9044 425.299 62.7896 368.447 89.3581 363.148C126.238 355.792 166.933 353.171 255.846 362.683Z" fill="#FF6B57"/>
</svg>
