<svg width="1781" height="1221" viewBox="0 0 1781 1221" fill="none" xmlns="http://www.w3.org/2000/svg">
<path d="M750.772 20.0349C214.005 -8.11124 61.116 50.171 2.07184 96.7264L0.0271309 969.279C18.2896 970.237 88.7764 946.837 196.671 952.494C381.355 962.178 456.817 977.212 621.447 1001.86C993.656 1057.6 1237.38 1034.16 1327.03 1038.86C1416.68 1043.56 1499.21 1041.68 1663.25 1056.49C1794.48 1068.34 1631.28 1164.46 1709.92 1220.31L1728.42 867.51C1754.47 624.756 1799.57 120.262 1771.59 44.3178C1736.61 -50.6126 1426.98 39.596 1306.95 38.4991C1107.5 36.6765 1176.27 42.3466 750.772 20.0349Z" fill="#FF6B57"/>
</svg>
